<?xml version="1.0" encoding="UTF-8"?>
<svg id="Layer_1" xmlns="http://www.w3.org/2000/svg" version="1.1" viewBox="0 0 610 215">
  <!-- Generator: Adobe Illustrator 30.0.0, SVG Export Plug-In . SVG Version: 2.1.1 Build 123)  -->
  <g>
    <g>
      <path d="M351,37.7c-12.9,12.6-45.3,34.5-35.2,56,3.1,6.5,11.2,15,15.8,21.1,2.8,3.8,5.3,7.9,8.1,11.6,2.3,3.2,5.5,5.9,7.3,9.5,1.4,2.6-.7,1.6-2,.2-6-6.2-10.6-15.6-16.6-22.1-2.4-2.6-5.3-4.5-7.9-6.7-.4-.4-.7-1.3-.9-1.3-1.8-.3-6,4.7-6.3,6.5,1.2,5.4,3,13.9-4.5,15.1.1-.5.2-1,.4-1.5v-.8c2.5-.6,3.5-2.6,2.9-6-1.4-5.9-1-10.5,4.3-14.2-3.9-4.1-10.4-7-16.2-5.6.4,3.7-1.8,6.7-4.9,8.4-1.4.8-4.3,2.3-5.6,1.4l1.8-1.1h0s0,0,0,0l-3.6.4.4-.9c5-1,8-3.5,8.9-7.3-1.9.6-2.9.3-4.8-.6-2.1,1-3.7,1-4.5,0h0s-.4-1.8-.4-1.8c.7.3,1.6-.4,1.8-.4h0s.5-.7.5-.7l3.1.4c11.2-2.6,21.2.8,29.6,9.1l-6.6-8.1c-3.9-5.4-5-11.9-3.7-18.4l.9-.9c-1-.5-.4-1.9,0-2.8,1.1-2.6,6.1-9.2,7.8-11.4,7.5-9.4,15.8-18.1,25.4-25.3l1.2-.3c.7-.6.3-.7-1.1-.4l-.5.9c-12.6,8.3-22.2,19.1-31.1,31-.9,1.3-1.9,2-3.1,2.1l.2.8-2.8,2c-5.3,5.9-15.3,15-17.5.8-1.3-8.5.5-20.9,2.1-29.5l.8-.8c.2,0,.4,0,.6.1.3.2,0,2.9-.2,3.5-.1,8.4-2.5,16.1-1.4,24.6,1,7.8,3.2,9.8,9.6,4.6,6.1-4.9,12.7-12.4,17.7-18.5,9.2-11.3,18.5-19.3,31.4-26.4,3.8-2.1,0,2.5-1.1,3.6Z"/>
      <path d="M261.1,179.3l-.2,1.3h0c-1,0-.7.1-.7,1.1-1-2.3-3.7-6.9-5.2-8.9-.8-1.2-2.2-2.5-3.2-3.5,0,.2,0,.3,0,.5-.6-.6-1.2-1.1-1.9-1.6-.4-.9-1-1.8-1.7-2.7-1.4-1.7-6-2.9-8.1-3.9-.4-.2-.3-.6-1-.9-2-.7-5.1-1.1-7.3-1.3-.2-.8-1.3-1.4-1.5-2-.4-1.3.5-3.6.3-5.4-.2-1.4-1.3-3.4-1.8-4.8-1.4-3.9-2.3-5.7-4.4-9.2-2.7-4.5-3.4-3.6-7.1-6.3-2.9-2-2.4-9.6-5.7-12.6-.2-.2-3.5-2.4-3.7-2.5-2.1-.9-7.3,1.9-8.3,3.7-.3.4-1.7,0-1.5-.7-.2-1.1,2-3,2.9-3.7.8-.6,2-1.4,2.6-.4,0,0,.1,0,.2,0,1.2-.2,2.3-.6,3.4-1,0-.3.2-.3.4,0h.9c-.6.2-.5.6-.1,1.1,0-.2.1-.3.2-.4.7-.7,7.1,3.7,6.8,5.6.7,3.6,2,6.7,3.9,9.2,3.8,1.8,5.6,3.9,7.7,7.5,3.5,6.1,6.7,12.7,5.5,19.6,13.7,1.6,23.3,9.9,28.6,22.4Z"/>
      <path d="M189.6,125.4c.5-.3.7-.2.4.4-3.1,2.4-6,5.4-9.4,7.6s-7.5,4.4-7.4,2.1,3.8-3.8,4.4-4.4c-1.2-2.1-6-.3-6.9,1.2s-1.2,6.7-.7,8.6,1.9,2.5,2.5,3c4.7,3.6,10,1.4,9.8-4.7s-3.4-5.1,0-5.3c-.6,1.9,1.2,3.4,1.4,5.3s-.5,4.4-1.5,5.8c-2.7,3.4-6.1,2.9-9.6.9-6.1-3.6-6.8-16.2.7-17.1s3.9,0,4.7.4.2.8.2,1.1c.6.1.9-.4,1.5-.7l2.3-2.1c1.7-1.3,1.9.2.3,1,.5.6.2,1.3-.9,2.1l7.1-5.4c.5-.4.8-.2,1.2.3Z"/>
      <path d="M240,69.1c-.1-.3-.5-.6-.4-1.1h-.4s0,2.9,0,2.9l-.7-1c-3.2-15.8-5.3-31.8-6.4-48,.2,1.6-.2,3-1,4.1.3.5-.8,5.3-.9,4.4-.2-2,0-4.3.2-6.3,0-2.8.4-5.5.4-8.2l-.7-9.5c1.6-1.8,2.1,2.1,2.4,3.4,2.5,11,2.1,23,3.1,34.2l4.3,25.1Z"/>
      <path d="M199.1,68l1.2.3c5.3,7.4,11.1,14.1,18.4,19.4l2.8,2.6c2.4,2.8,3.3,4.7-.4,7.1-7.6,4.3-15.2,8.6-21.5,15.3-5.4,5.7-10.9,11.1-16.6,16.3l-.7-.6c.2-.3.4-.7.7-.9-.8-.5-1.7,1.1-2.4,1.7s-.7.2-.9.3c.5-.8,1.2-1.4,1.8-2,10.3-9.1,19.7-20.2,31.3-27.5,2.1-1.3,4.7-2.1,6.7-3.6s2.8-1.6,1.3-3.8c-3.4-5-9.9-7.6-13.7-12.3-2.8-3.6-5.6-7.9-8.4-11.5-.3-.6-.4-.9.4-.7Z"/>
      <path d="M230.5,24.1c0,2.1,0,4.1,0,6.2l.7-4.4.7,2.3c.5,11.3,1,22.6,1.4,33.8-1.1,6.6-1.4,12.4.5,18.6.8,8.1-9.1,6.5-12.8,2.2-3-3.8-6.4-7-10.3-9.5v-1c-1.1-1.2-.7-1.6.7-.7,1.6,1.3,3.6,2.5,5.1,3.8,3.1,2.7,8.3,9.8,12.9,9.3s2.6-1.2,2.8-2-1.3-6.2-1.4-7.9c-.5-6.4,1.3-12.9.7-19.7-.8-10.1-1.6-18.5-1.5-28.9s-.2-1.6.4-2Z"/>
      <path d="M296,41c-.6-.7-.5,1.8-.4,2.6-.2,2,0,4.3-.7,6.2,0-1.2.3-2.7-.4-3.7l-.6-1.1c.1-2.6.6-6.3,1.7-8.4.3-.9.5-2.6-.4-2.9-2,13.5-5.1,26.8-9.1,39.8.3-.6-.3-1.3-.4-1.5-.1-1.3,1.4-5.8,1.7-7.6,1.2-6.2,2.6-12.2,4-18.3,2-9.2,3.7-20.6,6.5-29.3.3-1,1.7-4.2,2.1-1.6s-1.8,8.9-2.2,11.4c-.5,3.6-.8,7.4-1.1,10.9s-.3,2.6-.7,3.5Z"/>
      <path d="M310.6,126.3c-.7.4-1.2.8-1.8,1.3-1.5,1.1-1.5.5-2.2,2.6l-.7,4.4c0,2.7,1.3,6.9.7,9.2-.6,2-5.9,3-7.6,4.5-1.3,1.1-3.1,4.2-3.2,5.9,0,2.1,1.7,5,.3,6.9-1.1,1.5-8.2,2-10.5,3-2.5,1-3.6,3.1-5.9,4.5h0s0,0,0,0c0-.4.2-.7.4-1.1-.6-.1-1,.4-1.5.7-.3-.2-.5-.4-.6-.7-.2-.9,6.3-5.5,7.7-5.8.3.4.7.5,1.3.3v-.5c2.5-.5,5.1-1.1,7.7-1.7-1.4-5.5-.2-11.1,4.9-14.3,2.4-.5,4.1-1.5,5.3-3.1-.9-4.8-.8-9.4.4-13.8.3-1.4,2.9-3.2,4-2.4l1.5.2Z"/>
      <path d="M346.3,127c.6.7,4,6,4.3,6.8,1.4,3.8.3,6.8-2.7,9.3-5.6,4.6-12.1.9-14.9-4.9-1.9-4-1.5-9,3.6-10,0,2.1-2.8,2.5-3.2,4.3-1,4.6,3.4,10.3,7.9,11s9.4-3,8.4-8.1-3.2-5.9-3.8-6.5c-1-.9-6.7-2.3-4.2-3.9s4.2,1.3,4.6,1.8Z"/>
      <path d="M192.5,56.3c1.2,1.1,1.3,1.4.4,1.1-.7.8-1.4.3-1.1-.7-.7-.2-1,.2-1,.8h-.5c0,0-12.1-17.1-12.1-17.1-.2-.6-2.3-2.8-.9-3.1s1.2.4,1.6.9c4.6,5.4,8.2,13.1,13.5,18.1Z"/>
      <path d="M195.4,58.5c5.3,4.5,10.8,8.7,16.1,13.2-.8,0-.8,0-.7.7h-.8c-4.1-3.7-8.4-7-13-10l-2.9-2.4.2-.8c.3-.4.6-.7,1.1-.7Z"/>
      <path d="M191.8,56.7c-.2.3,0,.7.2,1.1.7,0,1,.5.9,1.8,2.8,1.6,5.3,5.3,6.2,8.4l-.4.7c-1.7-2.3-8.1-9.1-8.4-11.3s.4-.3.3-.6c0-.6-.9-1.2-.7-2,.8.3,1.3,1.3,1.8,1.8Z"/>
      <path d="M198,119.6l1.5.7c0,.1,0,.7,0,.7-.3.2-.8-.9-2.4,0s-5.3,3.5-7.1,4.8l-.4-.4.3-1.1c2.3-1.7,4.6-3.3,7-4.8h1.1Z"/>
      <path d="M195.4,58.5c.2,1-.2.7-1.1.7-.8.5-1.1.1-.7-.7-.9,0-1.4-.3-.7-1.1l.4-.2-.7-.9c.5.5,2.1,1.5,2.9,2.2Z"/>
      <path d="M296,41c0,1-.3,1.7-.4,2.6-.7-.6-.4-1.9-.3-2.7s.2-2,.7-2.1c0,.7,0,1.5,0,2.2Z"/>
      <path d="M305.8,134.5c0-1.6.2-2.9.7-4.4,0,1.4,0,3.1-.7,4.4Z"/>
    </g>
    <g>
      <g>
        <path d="M279.5,168.5h0c-.2,1.6-.4,2.5-1.1,4-.6.2-.3-.5-.4-.6-1-.7-1.5,1.1-1.7,1.9,0,.3-.2.7-.2,1-.4.3-.7.5-1.1.8,0,0,0,.1-.1.1,0-.5-.3-.5-.9-.4-.1,0-.9,2.5-.9,2.7,0,.6.7,3.9.8,5.1,0,.2,0,.4.2.5,0,.4,0,.8.1,1.1,0,.1-.2.2-.3.4-.1.1-.6.2-.7.5-.9,1.3,0,3-2.5,1.3.2,1.8,1.3,3.4,1.1,5.3,0,.5-.6.9-.6,1.1,0,.5,1.4,2.5.9,3.1,0,0-1.1.4-1.2.3-.6-.1-.7-1.6-1.7-1.4-.8,1.8,1.5,12.6,1.1,13.1,0,0-.9.3-.9.3-1.2-.1-1.8-5.4-2-6.5h-.7c-.4,1.1-.9,1.5-1.5,1.1t0,0c-1-1.3,0-3.9,0-5.3,0-.9-.3-5.7-.5-6,0-.2-.5-.5-.5-.4-.1,2.6-1.8,2.8-4,2.6l1.1-10.4c-.2-.8-.5-1.7-.8-2.4-.5-1.3-.5-2.5.7-1.1h0c1.5-2.7,3.2-2.3,3.5.8,1.5-.3,2.6.8,2.5,2,.1,0,.3-.1.4-.1-1.4-2-1.7-5.2,1.6-4.2.1-1.1,1-1.4,2-1.5,1.3-3.7,3.8-7,6.6-9.7l.9.2c1-1.9,2.9-1.5,1.1.4Z"/>
        <g>
          <path d="M267.1,202.5c-1-.3-1,2.7-2.2,1.1,1.3,0,1.1-1.1,1.1-2.2.9-.1,1,.4,1.1,1.1Z"/>
          <path d="M266.4,184.6c.2.6,1.6,3.5,1.5,3.7-2.1-.5-.7,3.3-1.1,4.8-1.7-.9-1.2-7.4-.4-8.4Z"/>
          <path d="M262.3,189c-1.1,1.1-.7-3.4-.7-3.7,1.4.1,1.1,3.2.7,3.7Z"/>
          <path d="M262,190.1l-1.1,2.6c.1-.7-.1-2.8,1.1-2.6Z"/>
          <path d="M262,182.4c.3-.3,1.4.6,1.5.9.3,1.4-1.9.6-1.5-.9Z"/>
        </g>
      </g>
      <path d="M207.1,114.4c-.6,1.1-2.5.8-3.7,1.1,1-.9,2.5-.7,3.7-1.1Z"/>
      <path d="M295.2,33.6c.4-1.7-.1-4,1.5-4.8-.3,1.1.1,3.3,0,4.1s-.7.2-.7.5c-.2.9.4,2.3-.4,3,0-.9.2-2.4-.4-2.9Z"/>
      <path d="M191.8,56.7c.3.3.8.5,1.1.7s.5.8.7,1.1c-1-.2-.7.2-.7,1.1-.2-.3-.3-.7-.5-1s-.7,0-1-.4c-.4-.6-.7-2,.4-1.6Z"/>
      <g>
        <path d="M224.3,104.6c-5.2,3.2-10,6.8-15.3,9.8-.6.3-1-.2-.8,1.2-.2,0-.5,0-.7,0l.3-.9-.2-.2c3.8-1.6,12.4-7.7,16.4-10.2.1.1.2.3.4.4Z"/>
        <path d="M221.8,112.8c-1.6,1-3.1,5.4-2.9,7.4,0,1.1.7,2.1.7,2.2,0,.2-.8.7-1.1.5-.1-.1-1.1-3-1.1-3.5,0-2.3,1.9-7.2,4.4-7.7.5,0,2,.4,2.1.6,1.2,2-1.7.2-2.1.5Z"/>
      </g>
      <path d="M308.4,119c0,.6.1,1.2-.6,1.6l-.6-5.2c-.2-1.2-1.4-5.2-2.7-5.4-.6,0-.9.9-1.6.7-.2-2.4,1.5-2.8,3.2-1.3,2.3,2,2.7,6.7,2.3,9.6Z"/>
      <g>
        <path d="M292.3,136c-.6.3-1.2.5-1.6.4.4,0,1,0,1.6-.4Z"/>
        <path d="M296,138c0-.2,0-.3,0-.5v.5Z"/>
        <path d="M258.8,150.9s0,0-.1,0h.8c0-.4.2-.7.3-.9-.3.4-.6.6-1,.8ZM258.8,150.9s0,0-.1,0h.8c0-.4.2-.7.3-.9-.3.4-.6.6-1,.8ZM258.8,150.9s0,0-.1,0h.8c0-.4.2-.7.3-.9-.3.4-.6.6-1,.8ZM258.8,150.9s0,0-.1,0h.8c0-.4.2-.7.3-.9-.3.4-.6.6-1,.8ZM255.7,149.8c-.2.6.2,1.1.9,1-.5-.2-.7-.5-.9-1ZM258.8,150.9s0,0-.1,0h.8c0-.4.2-.7.3-.9-.3.4-.6.6-1,.8ZM258.8,150.9s0,0-.1,0h.8c0-.4.2-.7.3-.9-.3.4-.6.6-1,.8ZM258.8,150.9s0,0-.1,0h.8c0-.4.2-.7.3-.9-.3.4-.6.6-1,.8ZM258.8,150.9s0,0-.1,0h.8c0-.4.2-.7.3-.9-.3.4-.6.6-1,.8ZM258.8,150.9s0,0-.1,0h.8c0-.4.2-.7.3-.9-.3.4-.6.6-1,.8ZM258.8,150.9s0,0-.1,0h.8c0-.4.2-.7.3-.9-.3.4-.6.6-1,.8ZM258.8,150.9s0,0-.1,0h.8c0-.4.2-.7.3-.9-.3.4-.6.6-1,.8ZM297.7,134.4l-.5-.3c-.5,1.5-.6,2.4-.6,3.6,0,.4,0,.8,0,1.3-.5,1-1.6,2.6-2.6,3.3.2-2.2-.3-3.6,1.8-4.8.3-.8-.1-1.1-1.3-.8,0,0-.1,0-.2,0-.1,0-.3,0-.4.1l-.2-.9c0-.6-.3-1-.4-1.1-.9-1.5-1.2-.2-1.1,1.1-.5.8-.9,1.6-1.1,2.6-.9-.2-.8-1.5-.7-2.2l1.3-1.5c1.2-.3.5-1.7-.6-.7-2,2.5-8.9,7.9-12,8.7-3,.8-5.2.3-7.7.5h0c0,0-1.8.7-1.8.7-1,.9,1.8.5,1.1,1.5-.2.1-1.1-.3-1.5-.4h0l-.8-.7s0,0,0,0c-.8.5-2.1-.4-2.8-.9-.7-2.5-2.9-.8-4.3.3,0-.5-.2-.8-.8-.9h0l-2.2,1.3c.2.3.7.2,1.1.5-.1.2-.2.4-.2.7l.2-.7c1.5,1.4.6,2.3-.7,3.3l.7.4s0,0,0,0h0c.3-.2,1.6-.9,1.8-.7.1.9-.6,1.3-1.1,1.8-.3,1.8,0,4.4-1.8,5.5-.3-1.7.2-2.5,1.1-3.8l-.7-.2c-.1.6-1.3.5-1.5,0-.2.2-2,1.3-2.2,1.1.6-1.5.3-2.5,0-4,.8-.2.9.5,1.1,1.1h0c1.6-1-1.1-3.7,1.8-3.7h0s0,0,0,0c0-.7,0-.8-.7-.7-1.1.1-.9-.2-1.3-.2-.4,0-2.9,1.6-3.6,1.6-.7,0-2.8-.6-3.4-.9-.6-.3-1.6-1.5-1.7-1.5-.2,0-.6.7-1,.6-.1,0-1.9-1.1-2-1.1-1.1-1.1-1.9-2.1-3.2-3.2-.6-.5-2.2-1.6-2.4-2-.5-.9-.1-1.9-.5-2.4-.2-.3-.9-.2-1.2-.5-3.6-3.5-7.8-9.4-10.7-13.7-.4-.6-2.7-5.6-3.4-4.9-.7,2.9.2,5.5,1.5,8.2,6.1,12.6,16.2,23.5,27.8,31.1,2.5,1.6,4.7,1.9,6.5,3,.6.3.7,1.1.8,1.2.4.2,1.2-.3,1.9-.2,2,.2,4.3,1.2,6.7,1.4,4.8.3,13.1-.8,17.4-2.9s4.5-3.2,5-3.6c3.8-4.2,4.2-7.4,6.5-12.2,1.3-2.8,2-2,1.7-6.1.2-1.1.6-2.9-.8-2ZM226.3,124.7l-.9-2.2c.5.3,1.9,1.6.9,2.2ZM227.9,128.5l-.8-3.1.9-.2.8,3.1-.9.2ZM233.1,134.7c-.2.2-1,.3-1.1.2-.2-.1-.5-3.1-.4-3.7,1,.4,2.6,2.7,1.5,3.5ZM235.1,138.6c-1-.9-.8-2.3-.5-3.5.1-.4,0-1.1.7-.5.1.1,1.2,2.9,1.1,3.1,0,.3-1.1.5-1.3.9ZM236.2,138.6h.5c.2,2.3-2.6,1.5-.5,0ZM239.3,142.4c-.2,1.1-2,.1-1.5-.5.2-.3,1.7-.4,1.5.5ZM240,143.3v-1.5h1.1c0,.8-.2,1.7-1.1,1.5ZM243,146.2c-2.4,0-2.9-1.5-.9-2.9,1.2-.3.9,2.2.9,2.9ZM243.7,144.4c.3-.3,1.3.9,1.8.7-.9,2.4-2.5,0-1.8-.7ZM250.3,152.4l-2-1.1-3.9-3.4c3.7-4.6,2,1.1,2.9,1.6,1.1.7,2-2.1,2.6-1.5-.6,1.4,1.1,2.2,1.1,2.4,0,.6-.8,1.3-.8,2ZM251,148.4c-.9-1,1.8-2,1.8-.9,0,.3-1.5,1.3-1.8.9ZM252,150.7c.2-.3.9-1.7,1.4-1.5.9.3.2.7,0,1.1-.5.8-1.1,1.6-2,1.8-.1-.6.3-1,.6-1.4ZM252.1,153.7c0-.6.9-1.4,1.5-.9,0,0,.3,1.8.4,2.2,0,0-1.8-1.2-1.8-1.3ZM257.2,154.3v1.8c-3.9.7-.6-2.5,0-1.8ZM289.4,138.2c0,1.4.3,3-.9,4-2.8-1.5-1.5-3.2.9-4ZM287.7,144.8c-1.3.5-.1-2.2.6-1.5.2.2,0,1.3-.6,1.5ZM290.1,146.2c.2.2-3.5,4.9-3.7,5.7l-1.1.4-1.4-2.2c.7-1,2-.7,2.9-1.1.8-.4,2.5-3.4,3.3-2.7ZM285.7,141.1l.4,3.6c-.5.6-2.1-2.3-2.2-2.7l1.8-.9ZM283.2,144c1,.5,2.8,3.3.9,3.6-1.7.3-1-2.8-.9-3.6ZM279.9,154.6c-.8-2.5-.4-1.4.8-1.9.4-.1,1-1.7,1.7-1,.7.8-2.1,2.5-2.6,2.9ZM278.1,146.2c2.5,0,2.5,3.3,2.2,5.1-1.5-1.3-2.5-3.1-2.2-5.1ZM278,152.2l-2.7,3.9c-1.5-1.3.2-1.5.6-2.1.2-.3,1.9-4.1,2.5-3.4.2.2-.2,1.3-.4,1.6ZM279.2,143.7c3.5-.8,3.7-1.3,2.5,2.5-.9.6-2.9-2.3-2.5-2.5ZM278.1,144c.3,1.1-.8.6-1,1.3-.2.5.2,1.3-.2,1.6-1.3-1.7-1.4-3.3,1.3-2.9ZM275.1,145.5c-.6,1.7,2.1,2.9,2.1,3.9,0,.6-1.7,3.4-1.9,3.4-1.3.2-2.3-3-2.4-3.9,0-.3,1.2-2.9,1.4-3.2.3-.4.3-.3.8-.2ZM272.6,144.4h1.5c-.3,1.2,0,2.2-1.5,1.8v-1.8ZM273.1,154.3h.5v1.5h-1.1c0-.7,0-1.1.6-1.5ZM270.4,152.4c.5,1.5,1.6,3.3-.7,3.7-.4-1.3-.9-2.9.7-3.7ZM268.4,153.2c-.9-.5-.3-.8-.3-1.4,0-1.3-.2-3.3,1.6-3.4.1,1.6,0,3.5-1.3,4.7ZM269.6,148.1c-.4-.4,1.5-2.2,1.8-1.8v2.6s-1.8-.7-1.8-.7ZM269.6,145.8c0,0,0,.1.2.2h0s0,0,0,0h0c.2.7-1.4,2.2-2.3,1.7-.3-.8,1.6-2,2.1-1.9ZM267.1,151.7c.5.4-.8,6.4-2.4,2.9.8-.7,1-2,1.3-2.7.2-.4,1-.3,1.1-.2ZM264.8,145.3c-.4.3-.9,1.9-1,2-1.5,1.1-2.1-5,1-2ZM263.8,148.8c.5-.8.9-1.8,2.2-1.8.6,1.9.9,3-.5,4.8-1,.5-.2-1.6-.2-2,0-.4-.3-.9-.3-1.3-.4-.1-.8.3-1.1.4-.1.2-1.2,2.9-1.8,2.2-.2-2.4.2-1.9,1.8-2.2ZM260.6,156.8c0-1.5,1.1-3.9,2.2-4.9.2-.1.9-.5,1-.5-.7,1.4-.5,3.3-.8,4.5-.2.7-2.4,3.2-2.4.9ZM289.6,153.2c-5.4,6.4-18.1,7.4-25.8,5.8l-1.1-.4.4-1.1c.4-.4.6-1.3,1.5-1.1l.6,1.8c.8-.3,2.6-3.1,3.3-2.9.6.1.5,2.1,1.3,2.4,1.2.6,1.7-1.2,2-1.3.4,0,.8.5,1.2.6.5.1,1.4,0,1.5.1.2.2-.4,1.6.9,1,.9-.4,2.2-3.9,2.8-4.4,1.3-1,.4,2.4.5,2.6,1.3,2.1,4.5-3.6,5-4.4,1.1-.3,1.2,1.6,1.5,1.8,1.9,1.4,4.5-6.2,5.4-5.1.1,2.3.6,2.6-.9,4.4ZM292.2,138.6c.2-.6-.1-1,.8-.8.5,1.7-.5,3-.7,4.2-.2,1.1.6,3.1-1.1,3.1.5-2.1.4-4.4,1-6.5ZM293.5,146.5c-4,4.4-2.2-.5.6-1.4.2,1-.2.9-.6,1.4ZM259.8,150.1c-.3.4-.6.6-1,.8,0,0,0,0-.1,0h.8c0-.4.2-.7.3-.9ZM258.8,150.9s0,0-.1,0h.8c0-.4.2-.7.3-.9-.3.4-.6.6-1,.8ZM258.8,150.9s0,0-.1,0h.8c0-.4.2-.7.3-.9-.3.4-.6.6-1,.8ZM258.8,150.9s0,0-.1,0h.8c0-.4.2-.7.3-.9-.3.4-.6.6-1,.8ZM258.8,150.9s0,0-.1,0h.8c0-.4.2-.7.3-.9-.3.4-.6.6-1,.8ZM258.8,150.9s0,0-.1,0h.8c0-.4.2-.7.3-.9-.3.4-.6.6-1,.8ZM258.8,150.9s0,0-.1,0h.8c0-.4.2-.7.3-.9-.3.4-.6.6-1,.8ZM258.8,150.9s0,0-.1,0h.8c0-.4.2-.7.3-.9-.3.4-.6.6-1,.8ZM258.8,150.9s0,0-.1,0h.8c0-.4.2-.7.3-.9-.3.4-.6.6-1,.8ZM258.8,150.9s0,0-.1,0h.8c0-.4.2-.7.3-.9-.3.4-.6.6-1,.8ZM258.8,150.9s0,0-.1,0h.8c0-.4.2-.7.3-.9-.3.4-.6.6-1,.8ZM258.8,150.9s0,0-.1,0h.8c0-.4.2-.7.3-.9-.3.4-.6.6-1,.8Z"/>
        <g>
          <path d="M259.4,144.8l-.2.7h0s0,0,0,0h0s0,.1,0,.1c-1.2.3-2.3,2.1-.5,2.5-.5.3-.9.8-1.5.7-.4-1.5-.2-2.6.7-3.3,0,0,0,0,0,0,.4-.3.8-.5,1.5-.7h0Z"/>
          <path d="M263.8,159c0,0-.2,0-.2,0-1.2-.1-1.7-.6-.5-1.4l-.4,1.1,1.1.4Z"/>
          <path d="M296.7,138.9c.1-.8,0-1.2,0-1.3-.2-.1-.5,0-.7-.2,0,.2,0,.4,0,.6h0s.7.9.7.9Z"/>
          <path d="M257.6,150.3c-.1.2-.2.6-.3.7-.2,0-.2-.2-.3-.2-.1-.2.2-.4.7-.5.5-.5,1.7-1.7,1.8-1.8,0,0,0,0,0,0h0c.4.6-.9,2.4-1.8,1.8,0,0,0,0,0,0Z"/>
          <path d="M260.1,149.5c-.1.1-.3.3-.4.5,0,0,0,0,0,0-.1.2-.2.5-.3.8h-.8c0,0,0,0,.1,0,.5-.3.6-1.2.7-1.3.2-.2.6,0,.6,0Z"/>
          <path d="M260.1,149.5c-.1.2-.2.4-.4.5,0,0,0,0,0,0-.1.2-.2.5-.3.8h-.8c0,0,0,0,.1,0,.5-.3.6-1.2.7-1.3.2-.2.6,0,.6,0Z"/>
          <path d="M257.6,150.3h0s0,0,0,0c-.1.2-.2.6-.3.7-.2,0-.5,0-.6-.1h0c-.6.1-1-.4-.9-1h0c-.1-.4-.2-1-.3-1.5,0,.6.3.9.7.9h0c.3.9-.7,1.3,1.5,1.1Z"/>
          <path d="M269.6,145.9s0,0,0,.1c0,0-.1,0-.2-.2,0,0,0,0,0,0Z"/>
          <path d="M269.7,146h0,0Z"/>
          <path d="M263.8,159c0,0-.2,0-.2,0-.6,0-1.2.2-1.6-.5-.2-.8.9-.7,1.1-.9l-.4,1.1,1.1.4Z"/>
        </g>
      </g>
      <g>
        <path d="M297.7,132c0,.1,0,.2,0,.4.1-.1.2-.3,0-.4ZM297.1,131.6c.1,0,.3.1.4.1,0,0-.2-.1-.4-.1ZM297.7,132c0,.1,0,.2,0,.4.1-.1.2-.3,0-.4ZM297.1,131.6c.1,0,.3.1.4.1,0,0-.2-.1-.4-.1ZM297.7,132c0,.1,0,.2,0,.4.1-.1.2-.3,0-.4ZM297.1,131.6c.1,0,.3.1.4.1,0,0-.2-.1-.4-.1ZM297.7,132c0,.1,0,.2,0,.4.1-.1.2-.3,0-.4ZM297.1,131.6c.1,0,.3.1.4.1,0,0-.2-.1-.4-.1ZM297.7,132c0,.1,0,.2,0,.4.1-.1.2-.3,0-.4ZM297.1,131.6c.1,0,.3.1.4.1,0,0-.2-.1-.4-.1ZM297.7,132c0,.1,0,.2,0,.4.1-.1.2-.3,0-.4ZM297.1,131.6c.1,0,.3.1.4.1,0,0-.2-.1-.4-.1ZM297.7,132c0,.1,0,.2,0,.4.1-.1.2-.3,0-.4ZM297.1,131.6c.1,0,.3.1.4.1,0,0-.2-.1-.4-.1ZM297.7,132c0,.1,0,.2,0,.4.1-.1.2-.3,0-.4ZM297.1,131.6c.1,0,.3.1.4.1,0,0-.2-.1-.4-.1ZM297.7,132c0,.1,0,.2,0,.4.1-.1.2-.3,0-.4ZM297.1,131.6c.1,0,.3.1.4.1,0,0-.2-.1-.4-.1ZM297.7,132c0,.1,0,.2,0,.4.1-.1.2-.3,0-.4ZM297.1,131.6c.1,0,.3.1.4.1,0,0-.2-.1-.4-.1ZM297.7,132c0,.1,0,.2,0,.4.1-.1.2-.3,0-.4ZM297.1,131.6c.1,0,.3.1.4.1,0,0-.2-.1-.4-.1ZM297.7,132c0,.1,0,.2,0,.4.1-.1.2-.3,0-.4ZM297.1,131.6c.1,0,.3.1.4.1,0,0-.2-.1-.4-.1ZM297.7,132c0,.1,0,.2,0,.4.1-.1.2-.3,0-.4ZM297.1,131.6c.1,0,.3.1.4.1,0,0-.2-.1-.4-.1ZM297.7,132c0,.1,0,.2,0,.4.1-.1.2-.3,0-.4ZM297.1,131.6c.1,0,.3.1.4.1,0,0-.2-.1-.4-.1ZM297.7,132c0,.1,0,.2,0,.4.1-.1.2-.3,0-.4ZM297.1,131.6c.1,0,.3.1.4.1,0,0-.2-.1-.4-.1ZM297.7,132c0,.1,0,.2,0,.4.1-.1.2-.3,0-.4ZM297.1,131.6c.1,0,.3.1.4.1,0,0-.2-.1-.4-.1ZM297.7,132c0,.1,0,.2,0,.4.1-.1.2-.3,0-.4ZM297.1,131.6c.1,0,.3.1.4.1,0,0-.2-.1-.4-.1ZM297.7,132c0,.1,0,.2,0,.4.1-.1.2-.3,0-.4ZM297.1,131.6c.1,0,.3.1.4.1,0,0-.2-.1-.4-.1ZM297.7,132c0,.1,0,.2,0,.4.1-.1.2-.3,0-.4ZM297.1,131.6c.1,0,.3.1.4.1,0,0-.2-.1-.4-.1ZM297.7,132c0,.1,0,.2,0,.4.1-.1.2-.3,0-.4ZM297.1,131.6c.1,0,.3.1.4.1,0,0-.2-.1-.4-.1ZM297.7,132c0,.1,0,.2,0,.4.1-.1.2-.3,0-.4ZM297.1,131.6c.1,0,.3.1.4.1,0,0-.2-.1-.4-.1ZM297.7,132c0,.1,0,.2,0,.4.1-.1.2-.3,0-.4ZM297.1,131.6c.1,0,.3.1.4.1,0,0-.2-.1-.4-.1ZM297.7,132c0,.1,0,.2,0,.4.1-.1.2-.3,0-.4ZM297.1,131.6c.1,0,.3.1.4.1,0,0-.2-.1-.4-.1ZM297.7,132c0,.1,0,.2,0,.4.1-.1.2-.3,0-.4ZM297.1,131.6c.1,0,.3.1.4.1,0,0-.2-.1-.4-.1ZM297.7,132c0,.1,0,.2,0,.4.1-.1.2-.3,0-.4ZM297.1,131.6c.1,0,.3.1.4.1,0,0-.2-.1-.4-.1ZM297.7,132c0,.1,0,.2,0,.4.1-.1.2-.3,0-.4ZM301.3,113.3c-1,2.7-2.2,5.4-3.3,8-1.7,3.9-4.1,9.4-6.8,12.8l.7.2c-.6.7-1.3,1-1.5,2l1.6-1.5.2,1.1c.3-.6.3-1.3,1.1-1.1,0-.4-.3-.8-.3-1.2,0-.2,1.2-2.2,1.4-2.3.6-.4,1.2.6,1.8.6.4-.6.7-.8.7-.6h0c0,0,0,.2,0,.3,1.7-2.1,1.2-.7,1.5-.4,0,.1,0,.2,0,.3,0,0,0,0,0,0h0l-.7,2.6h-.4l-.4-1.5-.4.2c0,0,0,.1,0,.2h0c0,.9-.2,1.7-.4,2.2,0,0,0,0,0,0,0,0,0,0,0,0-.2.3-.3.5-.6.6-.4.2-.7.5-1,.7,0,0-.1,0-.2,0-.2,0-.4-.2-.6-.7,0,.4,0,.7,0,1.1,1.6-.3,1.3-.2,2.2.4,0,.2,0,.4,0,.5h0c0,.4.3.7.7.9.8-1.6.3-2.7.7-4.4,1.4.4,1,.6,1.1,1.8,2.7-7.5,2.7-15.6,4-23.4l-1.3.4ZM298.4,128.2l-1.7,1.6c-.6-2.4.8-3.3,1.6-5.2.5-1.3.4-3.2,2-4-.9,2.6-.4,5.1-2,7.5ZM297.6,132.4c.1-.1.2-.3,0-.4,0,.1,0,.2,0,.4ZM297.1,131.6c.1,0,.3.1.4.1,0,0-.2-.1-.4-.1ZM297.7,132c0,.1,0,.2,0,.4.1-.1.2-.3,0-.4ZM297.1,131.6c.1,0,.3.1.4.1,0,0-.2-.1-.4-.1ZM297.7,132c0,.1,0,.2,0,.4.1-.1.2-.3,0-.4ZM297.1,131.6c.1,0,.3.1.4.1,0,0-.2-.1-.4-.1ZM297.7,132c0,.1,0,.2,0,.4.1-.1.2-.3,0-.4ZM297.1,131.6c.1,0,.3.1.4.1,0,0-.2-.1-.4-.1ZM297.7,132c0,.1,0,.2,0,.4.1-.1.2-.3,0-.4ZM297.1,131.6c.1,0,.3.1.4.1,0,0-.2-.1-.4-.1ZM297.7,132c0,.1,0,.2,0,.4.1-.1.2-.3,0-.4ZM297.1,131.6c.1,0,.3.1.4.1,0,0-.2-.1-.4-.1ZM297.7,132c0,.1,0,.2,0,.4.1-.1.2-.3,0-.4ZM297.1,131.6c.1,0,.3.1.4.1,0,0-.2-.1-.4-.1ZM297.7,132c0,.1,0,.2,0,.4.1-.1.2-.3,0-.4ZM297.1,131.6c.1,0,.3.1.4.1,0,0-.2-.1-.4-.1ZM297.7,132c0,.1,0,.2,0,.4.1-.1.2-.3,0-.4ZM297.1,131.6c.1,0,.3.1.4.1,0,0-.2-.1-.4-.1ZM297.7,132c0,.1,0,.2,0,.4.1-.1.2-.3,0-.4ZM297.1,131.6c.1,0,.3.1.4.1,0,0-.2-.1-.4-.1ZM297.7,132c0,.1,0,.2,0,.4.1-.1.2-.3,0-.4ZM297.1,131.6c.1,0,.3.1.4.1,0,0-.2-.1-.4-.1ZM297.7,132c0,.1,0,.2,0,.4.1-.1.2-.3,0-.4ZM297.1,131.6c.1,0,.3.1.4.1,0,0-.2-.1-.4-.1ZM297.7,132c0,.1,0,.2,0,.4.1-.1.2-.3,0-.4ZM297.1,131.6c.1,0,.3.1.4.1,0,0-.2-.1-.4-.1ZM297.7,132c0,.1,0,.2,0,.4.1-.1.2-.3,0-.4ZM297.1,131.6c.1,0,.3.1.4.1,0,0-.2-.1-.4-.1ZM297.7,132c0,.1,0,.2,0,.4.1-.1.2-.3,0-.4ZM297.1,131.6c.1,0,.3.1.4.1,0,0-.2-.1-.4-.1ZM297.7,132c0,.1,0,.2,0,.4.1-.1.2-.3,0-.4ZM297.1,131.6c.1,0,.3.1.4.1,0,0-.2-.1-.4-.1ZM297.7,132c0,.1,0,.2,0,.4.1-.1.2-.3,0-.4ZM297.1,131.6c.1,0,.3.1.4.1,0,0-.2-.1-.4-.1ZM297.7,132c0,.1,0,.2,0,.4.1-.1.2-.3,0-.4ZM297.1,131.6c.1,0,.3.1.4.1,0,0-.2-.1-.4-.1ZM297.7,132c0,.1,0,.2,0,.4.1-.1.2-.3,0-.4ZM297.1,131.6c.1,0,.3.1.4.1,0,0-.2-.1-.4-.1ZM297.7,132c0,.1,0,.2,0,.4.1-.1.2-.3,0-.4ZM297.1,131.6c.1,0,.3.1.4.1,0,0-.2-.1-.4-.1ZM297.7,132c0,.1,0,.2,0,.4.1-.1.2-.3,0-.4ZM297.1,131.6c.1,0,.3.1.4.1,0,0-.2-.1-.4-.1ZM297.7,132c0,.1,0,.2,0,.4.1-.1.2-.3,0-.4ZM297.1,131.6c.1,0,.3.1.4.1,0,0-.2-.1-.4-.1ZM297.7,132c0,.1,0,.2,0,.4.1-.1.2-.3,0-.4ZM297.1,131.6c.1,0,.3.1.4.1,0,0-.2-.1-.4-.1ZM297.7,132c0,.1,0,.2,0,.4.1-.1.2-.3,0-.4ZM297.1,131.6c.1,0,.3.1.4.1,0,0-.2-.1-.4-.1ZM297.7,132c0,.1,0,.2,0,.4.1-.1.2-.3,0-.4ZM297.1,131.6c.1,0,.3.1.4.1,0,0-.2-.1-.4-.1ZM297.7,132c0,.1,0,.2,0,.4.1-.1.2-.3,0-.4ZM297.1,131.6c.1,0,.3.1.4.1,0,0-.2-.1-.4-.1ZM290.7,136.4c.4,0,1,0,1.6-.4-.7.3-1.2.5-1.6.4Z"/>
        <g>
          <path d="M294.6,136.7c0,0-.1,0-.2,0,0,0,.1,0,.2,0Z"/>
          <path d="M296.2,135.3s0,0,0,0c0,0,0,0,0,0-.1.2-.3.4-.6.6.8-1.4.5-2.7.7-4,.2.3.3.7.3,1.2h0c0,.8,0,1.6-.4,2.2Z"/>
          <path d="M292.3,136c-.6.3-1.2.5-1.6.4.4,0,1,0,1.6-.4Z"/>
          <path d="M297.1,131.3c0,0,0,.2,0,.3,0,.3,0,.7,0,1.1,0,1-.2,2.9-1.1,3.5-.2.1-.4-.2-.4-.2.8-1.4.5-2.7.7-4,0-.3.5-1.4.7-1.1,0,.2,0,.3,0,.5h0Z"/>
          <path d="M297.4,131.8c-.1,0-.2,0-.4-.1.2,0,.3,0,.4.1Z"/>
          <path d="M297.6,132.4c0-.2,0-.3,0-.4,0,.1,0,.3,0,.4Z"/>
          <path d="M297.4,131.8c-.1,0-.2,0-.4-.1.2,0,.3,0,.4.1Z"/>
          <path d="M297.1,132.7c.3,0,.4-.2.5-.3,0,0,0,.2,0,.3h-.5Z"/>
          <path d="M297.7,132c0,.1,0,.3,0,.4,0-.2,0-.3,0-.4Z"/>
          <path d="M298.5,131.6s0,0,0,0c.3-.1.2-.2,0-.3h0v.4Z"/>
          <path d="M298.5,131.2s.7-.4.7-.4l-.4,2.9-.4-2.2v-.4Z"/>
        </g>
      </g>
      <g>
        <path d="M263.1,49c.2,1,.5,1.3.7.7l-.7-.7ZM263.1,49c.2,1,.5,1.3.7.7l-.7-.7ZM263.1,49c.2,1,.5,1.3.7.7l-.7-.7ZM263.1,49c.2,1,.5,1.3.7.7l-.7-.7ZM263.1,49c.2,1,.5,1.3.7.7l-.7-.7ZM263.1,49c.2,1,.5,1.3.7.7l-.7-.7ZM263.1,49c.2,1,.5,1.3.7.7l-.7-.7ZM263.1,49c.2,1,.5,1.3.7.7l-.7-.7ZM263.1,49c.2,1,.5,1.3.7.7l-.7-.7ZM263.1,49c.2,1,.5,1.3.7.7l-.7-.7ZM263.1,49c.2,1,.5,1.3.7.7l-.7-.7ZM263.1,49c.2,1,.5,1.3.7.7l-.7-.7ZM263.1,49c.2,1,.5,1.3.7.7l-.7-.7ZM263.1,49c.2,1,.5,1.3.7.7l-.7-.7ZM263.1,49c.2,1,.5,1.3.7.7l-.7-.7ZM263.1,49c.2,1,.5,1.3.7.7l-.7-.7ZM263.1,49c.2,1,.5,1.3.7.7l-.7-.7ZM263.1,49c.2,1,.5,1.3.7.7l-.7-.7ZM263.1,49c.2,1,.5,1.3.7.7l-.7-.7ZM263.1,49c.2,1,.5,1.3.7.7l-.7-.7ZM263.1,49c.2,1,.5,1.3.7.7l-.7-.7ZM263.1,49c.2,1,.5,1.3.7.7l-.7-.7ZM263.1,49c.2,1,.5,1.3.7.7l-.7-.7ZM263.1,49c.2,1,.5,1.3.7.7l-.7-.7ZM263.1,49c.2,1,.5,1.3.7.7l-.7-.7ZM263.1,49c.2,1,.5,1.3.7.7l-.7-.7ZM263.1,49c.2,1,.5,1.3.7.7l-.7-.7ZM263.1,49c.2,1,.5,1.3.7.7l-.7-.7ZM263.1,49c.2,1,.5,1.3.7.7l-.7-.7ZM263.1,49c.2,1,.5,1.3.7.7l-.7-.7ZM263.1,49c.2,1,.5,1.3.7.7l-.7-.7ZM263.1,49c.2,1,.5,1.3.7.7l-.7-.7ZM263.1,49c.2,1,.5,1.3.7.7l-.7-.7ZM263.1,49c.2,1,.5,1.3.7.7l-.7-.7ZM263.1,49c.2,1,.5,1.3.7.7l-.7-.7ZM263.1,49c.2,1,.5,1.3.7.7l-.7-.7ZM263.1,49c.2,1,.5,1.3.7.7l-.7-.7ZM263.1,49c.2,1,.5,1.3.7.7l-.7-.7ZM263.1,49c.2,1,.5,1.3.7.7l-.7-.7ZM263.1,49c.2,1,.5,1.3.7.7l-.7-.7ZM263.1,49c.2,1,.5,1.3.7.7l-.7-.7ZM263.1,49c.2,1,.5,1.3.7.7l-.7-.7ZM263.1,49c.2,1,.5,1.3.7.7l-.7-.7ZM263.1,49c.2,1,.5,1.3.7.7l-.7-.7ZM263.1,49c.2,1,.5,1.3.7.7l-.7-.7ZM263.1,49c.2,1,.5,1.3.7.7l-.7-.7ZM263.1,49c.2,1,.5,1.3.7.7l-.7-.7ZM263.1,49c.2,1,.5,1.3.7.7l-.7-.7ZM263.1,49c.2,1,.5,1.3.7.7l-.7-.7ZM263.1,49c.2,1,.5,1.3.7.7l-.7-.7ZM263.1,49c.2,1,.5,1.3.7.7l-.7-.7ZM263.1,49c.2,1,.5,1.3.7.7l-.7-.7ZM263.1,49c.2,1,.5,1.3.7.7l-.7-.7ZM263.1,49c.2,1,.5,1.3.7.7l-.7-.7ZM263.1,49c.2,1,.5,1.3.7.7l-.7-.7ZM263.1,49c.2,1,.5,1.3.7.7l-.7-.7ZM263.1,49c.2,1,.5,1.3.7.7l-.7-.7ZM263.1,49c.2,1,.5,1.3.7.7l-.7-.7ZM263.1,49c.2,1,.5,1.3.7.7l-.7-.7ZM263.1,49c.2,1,.5,1.3.7.7l-.7-.7ZM263.1,49c.2,1,.5,1.3.7.7l-.7-.7ZM263.1,49c.2,1,.5,1.3.7.7l-.7-.7ZM263.1,49c.2,1,.5,1.3.7.7l-.7-.7ZM263.1,49c.2,1,.5,1.3.7.7l-.7-.7ZM263.1,49c.2,1,.5,1.3.7.7l-.7-.7ZM263.1,49c.2,1,.5,1.3.7.7l-.7-.7ZM263.1,49c.2,1,.5,1.3.7.7l-.7-.7ZM263.1,49c.2,1,.5,1.3.7.7l-.7-.7ZM291.6,108.2c0-.2,0-.3-.3-.4l-3.4.8-.8-.5c-4.4,1.5-8.4,1-12.5-.9.2-.5.2-.9.1-1.1,1.2.8,4.6.7,5-.3.2,2.4,4.4,0,5.6-1.1,1.2-1.1,3.5-3.2,2.6-4.7h0c.4-.7.8-1.2,1.4-1.4v-.8s0,0,0,0c0-1.4-2.2-1.4-3.4-1.3-1.9,0-3.5.9-5.2,1.7-.9.4-7.9,4.6-8.1,5-.6.9-.7,1.7,0,2.6,0,.3-3.5,5.3-3.8,5.2-.5-.3-1.5-9.8-1.5-11.2-.1-4.1,3.1-10.5,7.6-10.3.8,1.7,1.8,1.4,2.9-1l1.8-1.4c2.7,3.8,5.1,1.1,3.1-2.6.2-.8.8-1.5,1.4-2.2,1.7,2.7,4-.4,1.9-2.4l.5-5.6-.6-.6s0,0,0,0h0s0,0,0,0c0,0,0,0,0,0h0c0,0,0-.1,0-.2t0,0h0s0,0,0,0h0c.1-.8,0-1.2-.4-1.1l-.9,1.5c-.2,0-2.1-2.8-2.4-3.3-1.3-1.6-1.6.6-.4,1.1.5,1.7,2,3.8,2.1,5.4.1,2.5-1.4,0-2-.6-.9-.7-2.6-1.1-3-1.8-.6-1-.4-2.7-.4-3.8.5,0,1,.2,1.5.4,0,0,.1,0,.2,0,0,0,0,0,0,0,.2,0,.4,0,.6-.3l-1.6-1.2c-1.3-1.6-4.8-4.2-5.4-5.7,0-.2-.3-1.1.1-1.2,1.5,1,2.7,2.3,3.8,3.7.8.1.9-.2.4-1.1-.8-.9-1.2-1.8-2-2.6-2.4-2.4-4.4-1.7-5.1-5.9-.1-.7.2-1.7,0-2.1-.7-1.1-1,0-1.3.4,0,0,0,0,0,0h0c-.3.4-.5.5-.7.4h0c-.9-7.5.4-17.2.3-25.1,0-1.3.9-4.8-1.4-4.6,0,1,0,2.1,0,3.1,0,.4.3,1.4-.4,1.3.2-1.1-.6-2.1-.7-3.1,0-1.2.9-3.1.7-4.4-.1-.8-1-1-1.1-2.2-.3-1.9,1.4-6.2-1.8-6.4v6c0,1.2-1.7,4.2-2.1,5.6-.4,1.6-.2,3.3-.6,4.6-.9,3.5-2.4,6.9-2.8,10.5-.6,0-.4-.8-.4-1.3,0-1.1,0-2.2,0-3.3,0-1.3.6-2.7.4-4-.3-1.5-1.8-1.5-1.8-.7v12.8c0,5.5-6.8,9.5-7.6,14.6l-5.9,7.7c-.1,1.3,2.1,1.5,2.2,1.6,0,0-.4,1.3-.5,1.4-.2.2-.9.2-1.2.5-.6.6-3.1,3.6-3.8,2.9,0-1.3-.3-2.5-.7-3.7-.1-.5-.3-.8-.4-1h0s0,0,0,0c-.7-1.5-.6,1.2-.3,2.9,0,0,0,0,0,0l-.5,1.1c.4,4.5,2.2,14.3,7.9,14.6.5,2,1.5,1.6,3,.7,5,1.5,8.3,4.3,9.1,9.5.9,5.7.7,11.8.4,17.6l-.9-2.9c-.9-7.4-1.7-10.6-9-13.5-10.7-4.3-16.5-2.1-25.1,5.1l-.2,1c-.1.4,0,.5.4.4,0,3.4,4.9,5.5,7.8,6.5,3.1,1.1,11.6,2.6,14.7,1.9.6-.1,1-.2,1.3-.8,2.7-.6,5.2-1.1,7.5-2.5l2.8,14.2c.1.5.5.8.9,1-1.1,2.5-4,14.8-2.9,16.6.7,1.3,1.7.8,2.7.1-1.1.9-1.8,1.9-2.3,2.8l.4.3.2.4c-1.6,0-2,1.4-1.3,4h0s0,0,0,0c-.2.2-.3.4-.4.7h0c-.2.6.2,1.1.9,1h0c.1,0,.2,0,.3-.1.2,0,.4-.2.6-.5,0,0,0,0,0,0,.9.6,2.2-1.2,1.8-1.8h0c.2-.8-.1-.6-.7-.4-1.7-.3-.7-2.1.5-2.5h0c0-.1,0-.1,0-.1h0s.2-.7.2-.7h0c.5-.5.9-1.1,1.1-1.8h0s.7-.5.7-.5l.5-4.2,3.3-4.3c.5,2.4,1.4,4.6,2.4,6.7,2.2.6,3.3,1.3,1.1,3-.2.4-.3.7-.3.9,0,.3.3.5.9.6h0c0,.3.1.5.3.7,0,0,0,.1.2.2h0s0,0,0,0h0c.8.7,2.4-.2,1.3-1.8.5,0,.6-.4.4-.9,0,0,0,0,0,0h0c.8-.1,1-.7.7-1.8-.7-2.1-.8-4.4-.4-6.7-1.2-4.7-2.2-9.3-2.9-14.1-.1-3.3,1.9-12,6.2-10.7,4.7,2.4,9.2,2.3,14.1.1l.5-.9c1.2-.4,1.8-.8,1.8-1.1h0s0,0,0,0ZM251.4,109.5c-3.3,1.2-10.4,1.7-13.7,1-4.1-.9-9.3-2.6-11.8-6.1,0-.5,8.1-4.1,8.6-4.1.4,0,2,2.6,3,3.1,2.5,1.4,6,.6,8.4-.6,1.2-.6,1.5-1.8,1.6-1.9.3-.2,5.8,2.8,6.2,3.1,3.4,2.5.5,4.5-2.2,5.5ZM279.9,76.8c.3-.3,1.7.8,1.5,1.5-.7-.1-2.2-.7-1.5-1.5ZM279.4,84.8c-.3.4-2.8,2.2-2.8.9v-5.3c2-.8,3.3,3.5,2.8,4.4ZM276.9,69.3c.3.8.3,3.2-1,3-1.3-1.9-1.9-3.2-2.2-5.5.3-.3,3.2,2.2,3.2,2.4ZM274,77.1c.7.7-1.9,1.8-1.5.5.2-.5,1.2-.8,1.5-.5ZM271.5,75.3v-2.2s1.1,0,1.1,0c.3.3-.4,2.1-1.1,2.2ZM268.2,59.6c.7-.2.7.2,1,.7.8,1.2,1.6,2.5,2.3,3.7-.5.5-.9-.3-1.5.4-.8.9.3,2.3.4,3.5,0,1,0,6.1-.5,6.7-.2.3-1.5.4-1.7,1,2.4,1.6.9,3.3,1.1,5.7h-1.1c-1.2-7.2,1-14.4,0-21.6ZM267.1,32.9c.1,5.5,1.1,11.3-.4,16.6-1.9-.8.3-3.8,0-5.5-.2-.9-.9-.8-1-1-.6-1,.4-5.3.6-6.7.2-1.1-.5-2.9.7-3.5ZM266,73.1c-.3-.1-.7-.4-1.1-.2-.8.4-.4,1.6-1.1,1.7,0-1.6-.1-3.3,0-4.9,0-1.3.8-3.6.7-4.7,0-1.1-2.1-3.8.4-4.2-.1,2.3,1.7,3.6,1.6,5.9,0,2-.7,4.4-.5,6.5ZM266.4,62.3c-1-4.1-1.6-4.9-1.1-9.5.2-1.4,1-1.8,1.6-.4.6,1.3.2,4,.3,5.6,0,1,.8,4.1,0,4.9-.6.6-.6-.1-.7-.6ZM262.3,49.7l.7.7c0-.5,0-1,0-1.5-.1-2.8-.2-6.6.9-9.1.2-.6,0-.9.9-.7-.3,2.1-.2,4.3-.4,6.4-.1,1.5-.7,2.6-.7,4.2,0,.3.5.8.4,1.6,0,.2-.6.2-.7.5,0,.2-.6,3.2-1.3,1.9-.6-1,.5-2.8.2-4ZM260.9,59.2c-.8,2.7,0,6.1-2.6,8,.5-2.2.9-5.2,1.7-7.2.2-.5-.2-1,.8-.8ZM256.9,72c.5-.8.9-2.4,1.8-2.9.2,1.5-.8,2.5-1.5,3.7.3-.9.2-1.1-.4-.7ZM249.6,61.3c2.2-2.7,4.6-5.3,6.9-7.9.6,2.2-1.7,3.1-2.6,4.3-2.2,3.1-1.9,5.1-5.5,7.4h-1.1l.4-.7c.6-.7,1.2-2.2,1.9-3.1ZM245,71.3c.8-.4,1.6-1.5,2.1-1.9.8-.5,1.3.2,2-.1,1.3-.6,5.6-7.3,6.8-9,.9-1.3,1.6-2.2,2.5-3.7.1-.2.3-1.4.9-.7.7.8-4.7,11.2-5.7,12.8-.7,1-1.9,1.9-2,3.3-1.9-1.2-1.7-.3-2.9.2-2.1.7-4.1,1.4-6.2,2l2.4-2.9ZM255.8,68.7c0,1.3-.5,2.6-1.2,3.8-.3.5-3.4,4.4-4,3.9l5.1-7.7ZM249.5,75c-.2,2.6-2.4,3.5-4.7,3.7,0-.9,1.2-1.5,1.9-2,.4-.3,2.6-1.9,2.9-1.7ZM241.5,76.1l4.4-1.1c-1.2,1.5-4.5,4.9-4.4,1.1ZM244.2,83l-1.6-2.9,2.6.4-.9,2.5ZM248.9,84.7c-.6.2-2.7,0-3-.3-.7-1.1.8-4.7,1.9-4.7.6,0,.8.8,1.7.6,1.3-.3,2.3-2.8,4.2-2.8.2,0,0,2.6,2,1.7,1.4-.6,4.7-6.7,5.7-8.2.1-.2.3-1.4.9-.7,0,.1-.3,1.2-.4,1.6-.2,3.6.9,6.5.7,10-.9,1-1.7-4-2-4.4-2.1-2.5-4.3,5.5-4.8,5.5-2.4-4.5-5.2,1.2-7,1.8ZM269.3,138.2c-1.6,0-.6-1.2-.9-2.2-.4-1.6-2.1-5.3-4-5.1-1.7.2-3.6,7.7-6,8.4.5-2.9.6-5.9,1.3-8.8.4-1.6,1.9-4.6,2-6,.1-1.7-.4-4.2-.4-6.2.1-8.3.9-15.7-.7-24.1-.6-3.1-4.6-6.7-7.4-7.9l-2.4-.8c1-.8,3.7-3.6,4.3-1.4.4,1.5-.8,2.7,1.9,2.7.4-1.1,2.3-6.9,3.1-6.9l1.2,4.6c0,.7-.2,4.9,1.3,4.5,1.1-.3,1.4-8.4,3.3-9.5.5,0,.9,3.2,1.2,3.9.2.5.8.9,1.1,1.5.2.5.2,2.9,1.4,2.6,1.6-.3,2.6-7.7,3.1-8,1.9-1.3,2.4,5.9,2.5,7.1-.2.6-3,1.2-3.9,1.6-2.3,1.2-5.3,6-5.6,8.6-.6,5.7,1.5,11.4,1.5,16.5,0,1.9-.9,2.3-1.1,3.7-1.1,7.1,4.9,14.1,3.3,21.4ZM263.8,49.7l-.7-.7c.2,1,.5,1.3.7.7ZM263.1,49c.2,1,.5,1.3.7.7l-.7-.7ZM263.1,49c.2,1,.5,1.3.7.7l-.7-.7ZM263.1,49c.2,1,.5,1.3.7.7l-.7-.7ZM263.1,49c.2,1,.5,1.3.7.7l-.7-.7ZM263.1,49c.2,1,.5,1.3.7.7l-.7-.7ZM263.1,49c.2,1,.5,1.3.7.7l-.7-.7ZM263.1,49c.2,1,.5,1.3.7.7l-.7-.7ZM263.1,49c.2,1,.5,1.3.7.7l-.7-.7ZM263.1,49c.2,1,.5,1.3.7.7l-.7-.7ZM263.1,49c.2,1,.5,1.3.7.7l-.7-.7ZM263.1,49c.2,1,.5,1.3.7.7l-.7-.7ZM263.1,49c.2,1,.5,1.3.7.7l-.7-.7ZM263.1,49c.2,1,.5,1.3.7.7l-.7-.7ZM263.1,49c.2,1,.5,1.3.7.7l-.7-.7ZM263.1,49c.2,1,.5,1.3.7.7l-.7-.7ZM263.1,49c.2,1,.5,1.3.7.7l-.7-.7ZM263.1,49c.2,1,.5,1.3.7.7l-.7-.7ZM263.1,49c.2,1,.5,1.3.7.7l-.7-.7ZM263.1,49c.2,1,.5,1.3.7.7l-.7-.7ZM263.1,49c.2,1,.5,1.3.7.7l-.7-.7ZM263.1,49c.2,1,.5,1.3.7.7l-.7-.7ZM263.1,49c.2,1,.5,1.3.7.7l-.7-.7ZM263.1,49c.2,1,.5,1.3.7.7l-.7-.7ZM263.1,49c.2,1,.5,1.3.7.7l-.7-.7ZM263.1,49c.2,1,.5,1.3.7.7l-.7-.7ZM263.1,49c.2,1,.5,1.3.7.7l-.7-.7ZM263.1,49c.2,1,.5,1.3.7.7l-.7-.7ZM263.1,49c.2,1,.5,1.3.7.7l-.7-.7ZM263.1,49c.2,1,.5,1.3.7.7l-.7-.7ZM263.1,49c.2,1,.5,1.3.7.7l-.7-.7ZM263.1,49c.2,1,.5,1.3.7.7l-.7-.7ZM263.1,49c.2,1,.5,1.3.7.7l-.7-.7ZM263.1,49c.2,1,.5,1.3.7.7l-.7-.7ZM263.1,49c.2,1,.5,1.3.7.7l-.7-.7ZM263.1,49c.2,1,.5,1.3.7.7l-.7-.7ZM263.1,49c.2,1,.5,1.3.7.7l-.7-.7ZM263.1,49c.2,1,.5,1.3.7.7l-.7-.7ZM263.1,49c.2,1,.5,1.3.7.7l-.7-.7ZM263.1,49c.2,1,.5,1.3.7.7l-.7-.7ZM263.1,49c.2,1,.5,1.3.7.7l-.7-.7ZM263.1,49c.2,1,.5,1.3.7.7l-.7-.7ZM263.1,49c.2,1,.5,1.3.7.7l-.7-.7ZM263.1,49c.2,1,.5,1.3.7.7l-.7-.7ZM263.1,49c.2,1,.5,1.3.7.7l-.7-.7ZM263.1,49c.2,1,.5,1.3.7.7l-.7-.7ZM263.1,49c.2,1,.5,1.3.7.7l-.7-.7ZM263.1,49c.2,1,.5,1.3.7.7l-.7-.7ZM263.1,49c.2,1,.5,1.3.7.7l-.7-.7ZM263.1,49c.2,1,.5,1.3.7.7l-.7-.7ZM263.1,49c.2,1,.5,1.3.7.7l-.7-.7ZM263.1,49c.2,1,.5,1.3.7.7l-.7-.7ZM263.1,49c.2,1,.5,1.3.7.7l-.7-.7ZM263.1,49c.2,1,.5,1.3.7.7l-.7-.7ZM263.1,49c.2,1,.5,1.3.7.7l-.7-.7ZM263.1,49c.2,1,.5,1.3.7.7l-.7-.7ZM263.1,49c.2,1,.5,1.3.7.7l-.7-.7ZM263.1,49c.2,1,.5,1.3.7.7l-.7-.7ZM263.1,49c.2,1,.5,1.3.7.7l-.7-.7ZM263.1,49c.2,1,.5,1.3.7.7l-.7-.7ZM263.1,49c.2,1,.5,1.3.7.7l-.7-.7ZM263.1,49c.2,1,.5,1.3.7.7l-.7-.7ZM263.1,49c.2,1,.5,1.3.7.7l-.7-.7ZM263.1,49c.2,1,.5,1.3.7.7l-.7-.7ZM263.1,49c.2,1,.5,1.3.7.7l-.7-.7ZM263.1,49c.2,1,.5,1.3.7.7l-.7-.7ZM263.1,49c.2,1,.5,1.3.7.7l-.7-.7ZM278.9,68.1h0s-.9-.9-.9-.9c0,0,0,.1,0,.2,0,0,0,0,0,.1,0,0,0,.1.1.2,0,0,.1.1.2.2.2.2.4.4.6.6,0,0,0,0,0,0,.2.1.3.3.5.4h0s-.7-.8-.7-.8Z"/>
        <g>
          <path d="M281.7,69.8c0,.5.2,1,.4,1.5l-.2.2s0,0,0,0c-.6.7-1.4.5-1.7-.6l.4-.2c-.5-.4-.7-.8-1.1-1.3l.2-.5s0,0,0,0c-.9-.6-1.4-1.2-1.6-1.7h0c-.1-.3-.1-.7,0-1l.4-1.1c1.9,2.1,2.5,2.8,4,5.1l-.7-.4Z"/>
          <path d="M270,54.8c-.4,1.1,2.1,5.1.9,5.5s-1.1-1.4-1.2-1.7c-.4-1.3-.3-2.1-.5-3.4.2-.1.6-.2.7-.4Z"/>
          <path d="M270.8,64.3h-.8c.6-.7.9.1,1.5-.3.3,1,0,1-.7.3Z"/>
          <path d="M282.1,71.3l-.2.2s0,0,0,0c-.6.7-1.4.5-1.7-.6,0,0,.1,0,.2,0,0,0,0,0,0,0,.5.1,1,.2,1.5.3Z"/>
          <path d="M248.4,65.1c-1.4.7-2.1.4-.8-.7,0,0,0,0,0,0l-.4.7h1.1Z"/>
          <path d="M263.8,49.7c-.3.6-.5.3-.7-.7l.7.7Z"/>
          <path d="M278.1,66.2h-.8c0,0,.8,1,.8,1h0c.2.6.7,1.1,1.6,1.7v.6c-.1,0-1.6-3.3-1.6-3.3Z"/>
          <path d="M241.5,97.6c0,1.4-2.3,1.2-3.4,1.6s-1.9,1.5-2.1.4c-.5-2.1,4.2-1.6,5.5-2Z"/>
          <path d="M263.8,49.7c-.3.6-.5.3-.7-.7l.7.7Z"/>
          <path d="M246.3,100.2c.7,1.1-2,2.4-2.9,2.2-.5-1.4,2.3-3.1,2.9-2.2Z"/>
          <path d="M257.2,72.8l-.4-.7c.5-.4.7-.1.4.7Z"/>
          <path d="M234.6,98.7c.3.3-.4,1.1-.8,1.2l-3.6,1.4c-.8-.7,4.2-2.7,4.4-2.6Z"/>
          <path d="M253.2,102.4c-.7.4-4.3-1.6-3.7-2.2s3.4,1.4,3.7,2.2Z"/>
          <path d="M272.6,67.6c-1.2-.8-.6-3.2-2.6-3.3.6-.7.9,0,1.5-.4.2.3.8.4,1,1.4.2.8,0,1.5,0,2.3Z"/>
          <path d="M278.1,102.4v1.8s-2.2,0-2.2,0c-.4-.4,1.4-2.3,2.2-1.8Z"/>
          <path d="M257.2,72.8l-.4-.7c.5-.4.7-.1.4.7Z"/>
          <path d="M248.4,65.1c-.4.2-1.7,1.6-2.2,1.1-.9-.9,1.1-1.6,1.4-1.8,0,0,0,0,0,0l-.4.7h1.1Z"/>
          <path d="M265.6,26c0,.5,0,2.6-.5,2.5s-.8-2.9.5-2.5Z"/>
          <path d="M279.9,80.8s0,0,0,.2v-.2Z"/>
          <path d="M286.8,98v1.1c-1,.1-1.9,0-1.8-1.1h1.8Z"/>
          <path d="M243.7,99.1v1.1c-.7,0-1.1,0-1.5-.6v-.5s1.5,0,1.5,0Z"/>
          <path d="M241.5,100.9c-.7,0-1.6.1-1.8-.7,1,0,1.8-.7,1.8.7Z"/>
        </g>
      </g>
    </g>
  </g>
  <g>
    <path d="M16.7,160.3c.6-3.7.9-7.2.9-10.2s-.1-3.2-.4-5.8c-.3-2.5-.6-4.7-1.1-6.6-.3-.9-.4-1.6-.4-1.9s0-.2,0-.3c0,0,0,0,.1,0l.4.4c.6.5,1.2.7,1.7.7,1.8,0,2.7-2.4,2.7-7.2s-.4-5-1.1-7.6c-.7-2.7-2.3-4.2-4.6-4.7,3.2-4.7,4.8-9.2,5-13.7,0-4.7-.7-9-2.1-12.8,2.2,1.2,4.2,1.8,6.1,1.8s3.3-.6,5.3-1.8c2.1-1.2,4.3-4.5,6.8-9.9-.7,4.2-1.1,7.7-1.1,10.4v.7c0,2.9.8,5,2.3,6.5-1.6.2-3,2-4.3,5.4-.7,1.7-1,3.7-1,5.9s.4,4.9,1.1,7.7c-1.6,2.7-2.4,5.5-2.4,8.5s.2,3.2.7,4.8c2.7,1.7,5.2,2.5,7.6,2.5s5.2-1.1,7.5-3.4c-.5-3.8-1.7-6.4-3.7-7.9,2.1-2.4,3.2-6.9,3.2-13.5s-.2-4.6-.6-7.5c-.4-3-1.4-5.5-3-7.5h1c3.5,0,6.9-2.4,10.1-7.4-.1.6-.2,1.2-.2,1.8,0,1.9.6,3.7,1.8,5.5,1.2,1.8,3.1,3,5.7,3.6l-1,1.8c-.7,1.3-1.4,2.7-2,4.5-.6,1.7-.9,3.4-.9,5.1s.7,3.9,2.1,5.2c-1.4,1.9-2.2,4.2-2.2,6.7s1,6.6,3.1,10.5c-1.3,3.1-1.9,6.8-1.9,11.2s.3,7,1,11.1c-3.9-5.9-8.1-9.3-12.7-10h-1.1c-2.4,0-4.9,1.1-7.4,3.4-2.4-1.4-4.7-2.1-6.7-2.1s-4.9,1.2-7.6,3.7c-2.7,2.5-5,6.6-6.8,12.5Z"/>
    <path d="M63.3,160.3c.6-3.7.9-7.2.9-10.2s-.1-3.2-.4-5.8c-.3-2.5-.6-4.7-1.1-6.6-.3-.9-.4-1.6-.4-1.9s0-.2,0-.3c0,0,0,0,.1,0l.4.3c.6.6,1.1.8,1.7.8,1.8,0,2.7-2.4,2.7-7.2,0-7.4-1.9-11.6-5.7-12.4,3.3-4.9,5-9.8,5-14.7s-.7-7.9-2-11.8c2.2,1.2,4.2,1.8,6.1,1.8s3.2-.6,5.2-1.8c2.1-1.2,4.3-4.5,6.8-9.9.7,3.1,2.1,5.5,3.9,7.5,1.9,1.9,3.9,2.9,6.1,2.9s.9,0,2.2-.1c1.3,0,3-1.7,5.2-4.9-.6,3.4-.8,6.6-.8,9.4s.1,3.3.4,5.8c.3,2.5.7,4.5,1.2,6.1l.2,1c0,0,0,0,0,0-.7-.6-1.7-1.1-3.1-1.5-.7-.2-1.5-.4-2.2-.4s-1.4.1-2.4.4c-1,.3-1.7,1.3-2.2,3-1.4-5.7-3.1-9.3-5.1-10.9-.7-.6-1.3-.8-2-.8-1.2,0-2.3,1.1-3.2,3.3-1,2.2-1.5,6-1.5,11.4s0,4.1.2,6.4c.8,10.4,2.6,15.9,5.4,16.5h.8c2.7,0,6.2-2.4,10.4-7.4.6,2.2,2.3,3.3,5,3.3s1,0,1.8-.2c.8-.1,1.6-.3,2.3-.5.7-.2,1.1-.3,1.2-.3v.3c0,.3,0,.8-.3,1.6-.5,1.8-.9,4.4-1.3,7.9-.1,1.1-.2,2.2-.2,3.4,0,2.7.3,5.8.9,9.3-4.8-7.4-9.3-11.1-13.6-11.1s-5.2,1.5-7.7,4.4c-2.4-1.4-4.7-2.1-6.7-2.1s-4.9,1.2-7.6,3.7c-2.7,2.5-5,6.6-6.8,12.5Z"/>
    <path d="M110.4,160.3c.6-3.7.9-7.2.9-10.2s-.1-3.2-.4-5.8c-.3-2.5-.6-4.7-1.1-6.6-.3-.9-.4-1.6-.4-1.9s0-.2,0-.3c0,0,0,0,.1,0l.4.4c.6.5,1.2.7,1.7.7,1.8,0,2.7-2.4,2.7-7.2s-.4-5-1.1-7.6c-.7-2.7-2.3-4.2-4.6-4.7,3.2-4.7,4.8-9.2,5-13.7,0-4.7-.7-9-2.1-12.8,2.2,1.2,4.2,1.8,6.1,1.8s3.3-.6,5.3-1.8c2.1-1.2,4.3-4.5,6.8-9.9-.7,4.2-1.1,7.7-1.1,10.4v.7c0,2.9.8,5,2.3,6.5-1.6.2-3,2-4.3,5.4-.7,1.7-1,3.7-1,5.9s.4,4.9,1.1,7.7c-1.6,2.7-2.4,5.5-2.4,8.5s.2,3.2.7,4.8c2.7,1.7,5.2,2.5,7.6,2.5s5.2-1.1,7.5-3.4c-.5-3.8-1.7-6.4-3.7-7.9,2.1-2.4,3.2-6.9,3.2-13.5s-.2-4.6-.6-7.5c-.4-3-1.4-5.5-3-7.5h1c3.5,0,6.9-2.4,10.1-7.4-.1.6-.2,1.2-.2,1.8,0,1.9.6,3.7,1.8,5.5,1.2,1.8,3.1,3,5.7,3.6l-1,1.8c-.7,1.3-1.4,2.7-2,4.5-.6,1.7-.9,3.4-.9,5.1s.7,3.9,2.1,5.2c-1.4,1.9-2.2,4.2-2.2,6.7s1,6.6,3.1,10.5c-1.3,3.1-1.9,6.8-1.9,11.2s.3,7,1,11.1c-3.9-5.9-8.1-9.3-12.7-10h-1.1c-2.4,0-4.9,1.1-7.4,3.4-2.4-1.4-4.7-2.1-6.7-2.1s-4.9,1.2-7.6,3.7c-2.7,2.5-5,6.6-6.8,12.5Z"/>
  </g>
  <g>
    <path d="M363.1,155.5c.6-3.7.9-7,.9-10s-.1-3.4-.4-6c-.3-2.6-.7-4.8-1.2-6.7-.3-.9-.4-1.5-.4-1.8s0-.2,0-.3c0,0,0,0,.1,0l.4.4c.7.5,1.4.7,1.9.7s.9-.2,1.4-.6c.5-.4,1-1.4,1.5-3.1.2-1.2.3-2.4.3-3.6,0-2.4-.4-5-1.3-7.6-.9-2.7-2.6-4.2-5.2-4.7,3.7-4.9,5.5-9.8,5.5-14.6s-.7-8-2.2-11.9c1.1.3,2.1.4,3.1.4,2.2,0,4.3-.9,6.1-2.7,1.8-1.8,3.5-4.3,4.8-7.6,2.2,3.6,5.2,6.2,8.7,7.8,2.6,1.1,5,1.7,7,1.7s1.4,0,2.1-.2c-.8,2.1-1.2,4.4-1.2,7.1s0,1.8.1,3.7c0,2,1.6,4.1,4.6,6.2-2.6.4-4.4,1.8-5.5,4.4-.7,1.8-1.1,3.8-1.1,6.1s0,1.8.2,2.8c.6,1.6,1.6,2.7,3.2,3.3,1.6.6,3.6.9,6,.9h3.3c-1.6,1.9-2.9,5.5-3.9,10.7-.3,1.6-.5,3.3-.5,5.1,0,3.9.8,8.1,2.4,12.7-3.9-3.7-7.7-6.1-11.4-7.1-.8-.2-1.6-.4-2.4-.4-2.8,0-5.4,1.4-7.7,4.2-1.8-1.5-3.7-2.2-5.7-2.2-5.8,0-10.3,4.3-13.6,13ZM381.2,108.7c.3,0,.7-.4,1.2-1.2.5-.8,1.1-1.6,1.9-2.4.8-.8,1.8-1.4,3.1-1.7,1.2-.3,1.9-1.2,1.9-2.8s-.5-4.4-1.6-7c-1.1-2.6-2-3.9-2.7-3.9s-1.1.5-1.6,1.6c-.5,1.1-1.5,3.6-2.8,7.5-.5,1.4-.7,2.9-.7,4.5s.2,2.8.5,3.9c.3,1.1.6,1.6.9,1.6ZM388.6,134.9c1.1,0,2.6-.9,4.3-2.7,1.4-1.6,2.2-3,2.2-4.4s-.9-1.6-2.7-1.9c-1.8-.2-3.3-.6-4.5-1.1-1.2-.5-2.2-1-2.9-1.5-.7-.5-1.3-.8-1.7-.8-.5,0-1,.4-1.5,1.1-.5.7-.7,1.5-.7,2.5s.4,2,1.1,2.9l1.4,1.9c.9,1.3,1.8,2.2,2.6,3,.8.7,1.6,1.1,2.4,1.1Z"/>
    <path d="M406.6,155.5c.6-3.7.9-7.2.9-10.2s-.1-3.2-.4-5.8c-.3-2.5-.6-4.7-1.1-6.6-.3-.9-.4-1.6-.4-1.9s0-.2,0-.3c0,0,0,0,.1,0l.4.4c.6.5,1.2.7,1.8.7,1.8,0,2.7-2.4,2.7-7.2s-.4-5-1.2-7.6c-.8-2.7-2.3-4.2-4.6-4.7,3.3-4.9,5-9.8,5-14.7s-.7-7.9-2.1-11.8c2.2,1.2,4.3,1.8,6.1,1.8s3.3-.6,5.3-1.8c2.1-1.2,4.3-4.5,6.8-9.9.7,3.1,2.1,5.5,3.9,7.5,1.9,1.9,3.9,2.9,6.1,2.9s.9,0,2.2-.1c1.3,0,3-1.7,5.2-4.9-.6,3.4-.8,6.6-.8,9.4s.1,3.3.4,5.8c.3,2.5.7,4.5,1.2,6.1l.2,1c0,0,0,0,0,0-.7-.6-1.7-1.1-3.1-1.5-.7-.2-1.5-.4-2.2-.4s-1.4.1-2.4.4c-1,.3-1.7,1.3-2.2,3-1.3-5.2-2.8-8.8-4.7-10.6-.8-.8-1.6-1.1-2.3-1.1s-1.8.7-2.6,2c-1.4,2.2-2.1,6.7-2.1,13.2v.8c1.9.9,4,1.4,6.2,1.4,3.1,0,6.5-.9,10.2-2.8-3.8,3.7-5.7,7.6-5.7,11.6v1.2c-1.7-2.7-3.9-4-6.4-4s-2.5.3-3.8.9c.6,8.3,2.3,12.7,5.2,13.1h.7c2.7,0,6.2-2.4,10.5-7.3.5,1.5,1.3,2.4,2.4,2.8.8.3,1.7.5,2.5.5s1,0,1.8-.2c.8-.1,1.6-.3,2.3-.5.7-.2,1.1-.3,1.2-.3v.3c0,.3,0,.9-.3,1.7-.5,1.7-.9,4.3-1.3,7.9-.1,1.1-.2,2.2-.2,3.4,0,2.7.3,5.7.9,9.2-4.8-7.4-9.3-11.1-13.6-11.1s-5.2,1.5-7.6,4.4c-2.4-1.4-4.7-2.1-6.8-2.1s-4.9,1.2-7.6,3.7c-2.7,2.5-5,6.6-6.8,12.5Z"/>
    <path d="M453.8,155.5c.6-3.7.9-7,.9-10s-.1-3.4-.4-6c-.3-2.6-.7-4.8-1.2-6.7-.3-.9-.4-1.5-.4-1.8s0-.2,0-.3c0,0,0,0,.1,0l.4.4c.7.5,1.4.7,1.9.7s.9-.2,1.4-.6c.5-.4,1-1.4,1.5-3.1.2-1.2.3-2.4.3-3.6,0-2.4-.4-5-1.3-7.6-.9-2.7-2.6-4.2-5.2-4.7,3.7-4.9,5.5-9.8,5.5-14.6s-.7-8-2.2-11.9c1.1.3,2.1.4,3.1.4,2.2,0,4.3-.9,6.1-2.7,1.8-1.8,3.4-4.3,4.7-7.6,2.3,3.6,5.2,6.2,8.8,7.8,2.6,1.1,5,1.7,7,1.7s1.4,0,2.1-.2c-1.1,2.2-1.7,4.3-1.7,6.1s.2,2,.7,3.5c.5,1.5,2.4,2.4,5.7,2.7v1.4c-.2.6-.2,1.3-.2,2.2v1.9c0,.9.2,2,.5,3.3.3,1.3.9,2.4,1.7,3.3.8.9,2,1.3,3.5,1.3l-1.6,3.4c-1.1,2.2-2.2,5.2-3.2,8.9-.9,3.2-1.3,6.8-1.3,10.6s0,1.9,0,4.3c0,2.4,1.1,5.8,3.3,10.1-3.9-3.7-7.7-6.1-11.4-7.1-.8-.2-1.6-.4-2.4-.4-2.8,0-5.4,1.4-7.7,4.2-1.8-1.5-3.7-2.2-5.7-2.2-5.8,0-10.3,4.3-13.6,13ZM471.2,134.5c.3,0,.8-.9,1.6-2.8.6-1.6,1.4-3.3,2.4-5.1,1.1-1.8,2.6-3,4.5-3.7,1.4-.6,2.1-2.2,2.1-4.8,0-4.4-1.3-10-3.7-16.7-2.3-5.9-4-8.9-5.1-8.9s-2,1.8-2.9,5.4c-.8,3.6-1.5,8.3-1.8,14-.1,2.4-.2,4.7-.2,6.8s.2,6.4.5,9.9c.3,3.6,1.2,5.5,2.6,5.8Z"/>
    <path d="M502.3,155.5c.6-3.7.9-7.2.9-10.2s-.1-3.2-.4-5.8c-.3-2.5-.6-4.7-1.1-6.6-.3-.9-.4-1.6-.4-1.9s0-.2,0-.3c0,0,0,0,.1,0l.4.4c.6.5,1.2.7,1.8.7,1.8,0,2.7-2.4,2.7-7.2s-.4-5-1.2-7.6c-.8-2.7-2.3-4.2-4.6-4.7,3.3-4.9,5-9.8,5-14.7s-.7-7.9-2.1-11.8c2.2,1.2,4.3,1.8,6.1,1.8s3.3-.6,5.3-1.8c2.1-1.2,4.3-4.5,6.8-9.9.7,3.1,2.1,5.5,3.9,7.5,1.9,1.9,3.9,2.9,6.1,2.9s.9,0,2.2-.1c1.3,0,3-1.7,5.2-4.9-.6,3.4-.8,6.6-.8,9.4s.1,3.3.4,5.8c.3,2.5.7,4.5,1.2,6.1l.2,1c0,0,0,0,0,0-.7-.6-1.7-1.1-3.1-1.5-.7-.2-1.5-.4-2.2-.4s-1.4.1-2.4.4c-1,.3-1.7,1.3-2.2,3-1.3-5.2-2.8-8.8-4.7-10.6-.8-.8-1.6-1.1-2.3-1.1s-1.8.7-2.6,2c-1.4,2.2-2.1,6.7-2.1,13.2v.8c1.9.9,4,1.4,6.2,1.4,3.1,0,6.5-.9,10.2-2.8-3.8,3.7-5.7,7.6-5.7,11.6v1.2c-1.7-2.7-3.9-4-6.4-4s-2.5.3-3.8.9c.6,8.3,2.3,12.7,5.2,13.1h.7c2.7,0,6.2-2.4,10.5-7.3.5,1.5,1.3,2.4,2.4,2.8.8.3,1.7.5,2.5.5s1,0,1.8-.2c.8-.1,1.6-.3,2.3-.5.7-.2,1.1-.3,1.2-.3v.3c0,.3,0,.9-.3,1.7-.5,1.7-.9,4.3-1.3,7.9-.1,1.1-.2,2.2-.2,3.4,0,2.7.3,5.7.9,9.2-4.8-7.4-9.3-11.1-13.6-11.1s-5.2,1.5-7.6,4.4c-2.4-1.4-4.7-2.1-6.8-2.1s-4.9,1.2-7.6,3.7c-2.7,2.5-5,6.6-6.8,12.5Z"/>
    <path d="M549.3,155.5c.6-3.7.9-7.2.9-10.2s-.1-3.2-.4-5.8c-.3-2.5-.6-4.7-1.1-6.6-.3-.9-.4-1.6-.4-1.9s0-.2,0-.3c0,0,0,0,.1,0l.4.4c.6.5,1.2.7,1.7.7s.8-.2,1.2-.6c.4-.4.9-1.4,1.3-3.1.2-1.3.3-2.6.3-3.8,0-2.3-.4-4.8-1.2-7.4-.8-2.6-2.3-4.2-4.6-4.7,3.2-4.7,4.8-9.2,5-13.7,0-4.7-.7-9-2-12.8,2.2,1.2,4.2,1.8,6.1,1.8s3.2-.6,5.2-1.8c2.1-1.2,4.3-4.5,6.8-9.9-.2,1.9-.3,3.8-.3,5.5s.2,4.6.6,7.1c.4,2.5,2,3.8,4.6,4.1-.3,1.7-.5,3.2-.5,4.7,0,4.3,1.3,7.8,3.9,10.4-1.2,2.6-1.8,5.3-1.8,8.1v2.4c0,1.6,1.3,4.1,4,7.6.4-1.4.7-2.8.7-4.1,0-2.6-.9-5.1-2.7-7.4,1.9-1.6,2.9-4.5,2.9-8.5s-.5-5.6-1.4-8.7c-.9-3.1-2.3-5.6-4.3-7.5,3.1-.4,5.5-1.3,7.1-2.5,1.6-1.2,3.1-3.2,4.4-6-.1.6-.2,1.2-.2,1.8,0,1.9.6,3.7,1.8,5.5,1.2,1.8,3.1,3,5.7,3.6l-1,1.8c-.7,1.3-1.3,2.8-2,4.5-.6,1.8-.9,3.4-.9,5.1s.7,3.9,2.1,5.2c-1.4,1.9-2.2,4.2-2.2,6.7s1,6.6,3.1,10.5c-1.3,3.1-1.9,6.8-1.9,11.2s.3,7,1,11.1c-4.8-7.3-9.3-11-13.6-11h-.7c-2.6-5.9-5.3-8.8-8.1-8.8s-.7,0-1.1.2c.7-1.9,1-4.4,1-7.7s-.2-3.1-.5-5c-.3-1.9-1.3-3.5-2.9-4.6,1.1-1.7,1.6-3.4,1.6-5s-.1-1.2-.3-2.3c-.2-1.1-.9-2.1-2.1-3.1-.4,1.7-.7,4.1-.8,7.3,0,3.3.7,6.3,2.2,9-1.3,2.1-2,4.3-2,6.8,0,4.2,2,10.1,5.9,17.5-2.4-1.4-4.7-2.1-6.7-2.1s-4.9,1.2-7.6,3.7c-2.7,2.5-5,6.6-6.8,12.5Z"/>
  </g>
</svg>